<?xml version="1.0" encoding="UTF-8"?>
<svg id="Layer_2" xmlns="http://www.w3.org/2000/svg" xmlns:xlink="http://www.w3.org/1999/xlink" viewBox="0 0 266.81 277.68">
  <defs>
    <style>
      .cls-1 {
        fill: url(#linear-gradient-2);
      }

      .cls-2 {
        fill: #e52e9b;
      }

      .cls-3 {
        fill: url(#linear-gradient-4);
      }

      .cls-4 {
        fill: url(#linear-gradient-3);
      }

      .cls-5 {
        fill: url(#linear-gradient-5);
      }

      .cls-6 {
        fill: #17c8e5;
      }

      .cls-7 {
        fill: #414042;
      }

      .cls-8 {
        fill: url(#linear-gradient);
      }
    </style>
    <linearGradient id="linear-gradient" x1="106.54" y1="167.9" x2="167.27" y2="121.75" gradientUnits="userSpaceOnUse">
      <stop offset="0" stop-color="#17c8e5"/>
      <stop offset="1" stop-color="#e52e9b"/>
    </linearGradient>
    <linearGradient id="linear-gradient-2" x1="175.37" y1="250.06" x2="196.45" y2="250.06" xlink:href="#linear-gradient"/>
    <linearGradient id="linear-gradient-3" x1="175.37" y1="243.72" x2="196.45" y2="243.72" xlink:href="#linear-gradient"/>
    <linearGradient id="linear-gradient-4" x1="175.37" y1="249.06" x2="196.45" y2="249.06" xlink:href="#linear-gradient"/>
    <linearGradient id="linear-gradient-5" x1="175.37" y1="249.06" x2="196.45" y2="249.06" xlink:href="#linear-gradient"/>
  </defs>
  <g id="Layer_1-2" data-name="Layer_1">
    <g>
      <g>
        <g>
          <g>
            <path class="cls-6" d="M65.7,81.65c-3.08,4.31-9.1,5.4-12.65,6.33-.19.04-.39.07-.56.07-3.19.18-4.79-5.57-3.62-7.18.36-.49,1.41-.67,2.7-.76h.01s.01-.01.01-.01c3.26-.24,7.9.07,5.99-2.48-4-5.28-7.64-10.5-8.87-17.29-.56-3.16-1.72-7.41-.03-12.51,0,0,.34,13.43,7.9,21.16,7.56,7.72,12.2,8.33,9.1,12.66Z"/>
            <path class="cls-6" d="M24.65,85.19c-.37.79-3.2,6.18-3.2,6.18-.43.04-.86.07-1.29.07-9.04.39-17.85-4.52-19.54-14.26-1.76-10.19.82-14.84.82-14.84,0,.1.01,4.61,2.73,15.66,2.28,9.33,19.29,7.34,20.43,7.21.04-.01.06-.01.06-.01Z"/>
            <path class="cls-6" d="M65.93,162.28l32.26-32.26c1.08-1.08,1.02-2.81-.09-3.86-1.88-1.76-3.6-3.73-5.19-5.75-4.88-6.23-10-12.25-14.96-18.42-2.89-3.57-5.92-7.21-9.7-9.89-2.31-1.63-4.99-2.42-7.76-2.84-2.49-.37-5.77.06-8-1.23-3.19.18-4.79-5.58-3.62-7.18.36-.49,1.41-.67,2.7-.76h.01c-.18-.07-.85-.66-.97-.74-1.5-.95-3.04-1.51-4.83-1.47-1.94.04-3.81.62-5.71.86-5.1.66-11.2,2.08-15.06,5.9-.1.1-.25.28-.43.53.04-.01.06-.01.06-.01-.37.79-3.2,6.19-3.2,6.19-.43.04-.86.07-1.29.07h-.01c-.61.77-1.19,1.38-1.65,1.67-1.83,1.21-5.87,3.14-7.07,3.78-2.23,1.2-1.38,5.41-1.38,7.44,0,.81.01,1.63.15,2.41.55-.53,1.24-1.12,2.14-1.81,3.11-2.41,11.95,2.81,12.32,3.01,1.73.98.37,2.29-1.44,1.57-1.81-.71-7-2.17-9.12-2.24-.85-.03-1.97.68-2.99,1.45h-.01c-.12-.1-.22-.21-.31-.33.42.67,1.02,1.09,1.72,1.65.92.74,1.51,1.81,2.52,2.48.76.51,1.62.83,2.51,1,.57.1,1.15.13,1.73.13.48,0,1.78-.36,2.15-.19,0,0,7,2.9,11.43,9.57,4.42,6.68,8.04,11.11,7.4,16.67-.63,5.56-3.54,14.56,1.45,22.94,0,0,.48,1.69.88,5.87.42,4.18,2.81,12.23,8.21,18.42,5.4,6.2,1.62,5.71,4.67,11.9,2.02,4.09-.4,10.7-.8,12.89-.4,2.17.16,2.42-.58,3.69-.71,1.29-3.29,5.56-2.56,7.09,0,0,11.34.64,13.27,0,0,0-.07-5.71-.8-6.6-.73-.89,2.9-.89,1.62-4.02-1.29-3.14-3.22-13.19-2.75-18.03.49-4.83,0-8.69,0-8.69,0,0,2.26.15,5.4-2.58,3.15-2.75,9.58-.09,9.91.48.31.57-1.54,4.75,2.4,15.04,0,0,.72,6.36-1.37,11.11-2.09,4.76-2.49,4.76-2.49,6.19s-3.46,1.77-2.66,7.37l12.44.12s3.42-3.99,2.18-6.58c-.1-.74.51-.91,1.02-1.5h.01c.12-.13.22-.28.31-.44.03-.04.06-.09.07-.15.55-1.04.74-2.55-.07-5.01-.84-2.57-3.1-9.25-2.3-12.15.82-2.9,3.71-7.88,3.55-9.98-.16-2.09,6.12-1.66,9.33-2.18l5.5-.56c2.85-.3,5.43-1.81,7.07-4.15l12.54-17.94h-59.78ZM17.06,101.93c-3.38-.12-3.38-2.05-2.41-3.74.96-1.69,6.52-1.2,6.52-1.2,0,2.53-.73,5.07-4.11,4.94Z"/>
            <path class="cls-6" d="M14.64,98.19c.96-1.69,6.52-1.2,6.52-1.2,0,2.54-.73,5.07-4.11,4.94-3.38-.12-3.38-2.05-2.42-3.74Z"/>
            <path class="cls-6" d="M21.45,91.37c-.43.04-.86.07-1.29.07.89-1.1,1.87-2.49,2.71-3.75.68-.99,1.29-1.9,1.7-2.48.01,0,.01-.01.01-.01.04-.01.06-.01.06-.01-.37.79-3.2,6.18-3.2,6.18Z"/>
            <path class="cls-6" d="M23.21,109.53c-1.81-.71-7-2.16-9.12-2.24-.85-.03-1.97.68-2.99,1.45h-.01c-.12-.1-.22-.21-.31-.33t-.01-.03c-.15-.21-.25-.47-.36-.76-.07-.25-.13-.49-.19-.74,0-.04,0-.09-.01-.13.55-.53,1.25-1.13,2.13-1.81,3.11-2.42,11.95,2.8,12.32,3.01,1.73.98.37,2.3-1.44,1.57Z"/>
            <path class="cls-6" d="M52.49,88.05c-3.19.18-4.79-5.57-3.62-7.18.36-.49,1.41-.67,2.7-.76l-.47.1c-1.78.37-2.86,2.22-2.24,3.93.65,1.78,2.39,3.19,3.63,3.9Z"/>
            <path class="cls-6" d="M21.17,96.99c0,2.54-.73,5.07-4.11,4.94-3.38-.12-3.38-2.05-2.42-3.74.96-1.69,6.52-1.2,6.52-1.2Z"/>
            <path class="cls-6" d="M23.21,109.53c-1.81-.71-7-2.16-9.12-2.24-.85-.03-1.97.68-2.99,1.45h-.01c-.12-.1-.22-.21-.31-.33t-.01-.03c-.36-.43-.59-.92-.73-1.45h0c.04-.06.1-.12.16-.18.55-.53,1.25-1.13,2.13-1.81,3.11-2.42,11.95,2.8,12.32,3.01,1.73.98.37,2.3-1.44,1.57Z"/>
          </g>
          <path class="cls-2" d="M266.22,149.75c-.8.89-1.66,2.13-2.11,3.66-.98,3.34-5.9,1.77-7.66,1.97-1.76.19-4.32,2.55-6.08,3.93-1.77,1.37-3.74-.2-8.26-1.18-4.51-.98-5.69.39-8.44,1.18-2.75.79-3.73.98-3.93,3.54-.19,2.55,1.57,7.65.6,15.91-.98,8.25.98,26.9,3.13,33.39,2.17,6.48,8.26,5.3,17.29,8.84.77.3,1.79.56,2.32,1.24.82,1.09-1.18,1.7-1.88,1.88-.12.03-.23.05-.34.08-.1.02-.2.04-.3.07-1.42.35-2.87.56-4.33.74-.71.08-1.43.16-2.14.22-.04,0-.07,0-.1,0-1.75.16-3.04.22-3.04.22l-1.96-.07h-.06c-1.23-.04-2.45-.08-3.68-.13-2.19-.07-4.38-.15-6.57-.23-1-.04-1.99,0-2.99,0-.9,0-1.82,0-2.69-.21-.86-.22-1.64-.72-2.34-1.24-1.69-1.27-3.08-2.93-4.34-4.62-1.58-2.13-2.96-4.39-4.27-6.69-1.44-2.52-2.77-5.09-4.06-7.69-1.25-2.53-2.46-5.08-3.66-7.63-.5-1.06-1-2.11-1.5-3.16-5.61-11.78-2.95-19.76-2.95-19.76-1.53,1.65-3.2,3.16-4.92,4.59-1.53,1.27-3.09,2.48-4.7,3.64-.77.46-1.47,1.05-2.2,1.56-1.35.94-2.67,1.89-4.12,2.65-1.6.83-3.27,1.52-4.95,2.17-1.57.61-3.16,1.17-4.73,1.79-1.12.45-2.31.89-3.29,1.62-.19.14-.37.29-.52.48-1.77,2.17-6.28,14.54-6.28,20.03s3.73,3.73,7.66,3.93c3.93.19,1.57,4.32-1.57,4.91-3.14.6-14.14-.59-19.25-.98-1.09-.08-2-.39-2.77-.89-2.79-1.83-3.69-6.33-5.08-12.65-1.16-5.29-1.13-9.55-1.93-11.64-.47-1.26-.07-2.67.93-3.57l1.15-1.02,15.48-13.87,5.12-4.59,44.8-40.14-64.57-1.18c-1.03-.01-1.69-1.09-1.25-2.02l1.67-3.53c.83-1.73,2.34-3.04,4.18-3.57,5.02-1.44,9.42-1.91,12.3-1.67,9.42.78,12.96,1.57,28.67-7.66,15.71-9.24,20.82-4.13,27.5-1.97,6.68,2.16,24.16,7.27,25.73,5.11,1.57-2.17,3.33-1.57,5.11,0,1.76,1.57-.59,5.69,4.91,8.98,5.5,3.28,4.91,7.71,6.09,12.82.79,3.42,4.58,7.11,6.99,9.17.99.84,1.09,2.31.22,3.28Z"/>
          <polygon class="cls-8" points="78.82 240.72 136.48 156.6 79.63 156.6 162.94 73.3 133.03 136.28 194.14 137.4 78.82 240.72"/>
        </g>
        <g>
          <g>
            <g>
              <rect class="cls-6" x="85.05" y="21.61" width="16.62" height="66.47"/>
              <rect class="cls-6" x="91.28" y="4.96" width="4.15" height="99.87"/>
            </g>
            <g>
              <rect class="cls-6" x="126.76" y="33.21" width="16.62" height="33.29"/>
              <rect class="cls-6" x="132.99" y="16.56" width="4.15" height="66.63"/>
            </g>
            <g>
              <rect class="cls-6" x="105.91" y="16.64" width="16.62" height="66.47"/>
              <rect class="cls-6" x="112.14" y="0" width="4.15" height="99.87"/>
            </g>
          </g>
          <g>
            <g>
              <rect class="cls-2" x="211.22" y="21.61" width="16.62" height="66.47"/>
              <rect class="cls-2" x="217.45" y="4.96" width="4.15" height="99.87"/>
            </g>
            <g>
              <rect class="cls-2" x="169.51" y="33.21" width="16.62" height="33.29"/>
              <rect class="cls-2" x="175.74" y="16.56" width="4.15" height="66.63"/>
            </g>
            <g>
              <rect class="cls-2" x="190.36" y="16.64" width="16.62" height="66.47"/>
              <rect class="cls-2" x="196.59" y="0" width="4.15" height="99.87"/>
            </g>
          </g>
        </g>
      </g>
      <g>
        <path class="cls-7" d="M13.67,254.52v4.49h6.1v18.51h5.6v-18.51h6.1v-4.49H13.67Z"/>
        <path class="cls-7" d="M53.59,268.41c1.68-.51,2.96-1.36,3.81-2.56.86-1.2,1.3-2.57,1.3-4.09,0-1.35-.32-2.59-.95-3.69-.63-1.1-1.59-1.97-2.87-2.61-1.27-.63-2.82-.95-4.64-.95h-9.4v23h5.61v-8.68h1.34l4.79,8.68h6.33l-5.31-9.1ZM52.23,264.12c-.51.5-1.29.75-2.32.75h-3.47v-5.7h3.47c1.03,0,1.8.25,2.32.75.51.51.77,1.19.77,2.06,0,.92-.25,1.63-.77,2.14Z"/>
        <path class="cls-7" d="M82.07,254.52h-6.49l-8.32,23h5.87l1.38-4.06h8.58l1.38,4.06h5.93l-8.32-23ZM75.98,269.13l2.82-8.42,2.85,8.42h-5.67Z"/>
        <path class="cls-7" d="M118.67,260c-1-1.73-2.4-3.09-4.21-4.05-1.82-.96-3.93-1.44-6.36-1.44h-8.62v23h8.62c2.4,0,4.52-.48,6.34-1.44,1.82-.96,3.23-2.32,4.23-4.06.99-1.75,1.49-3.75,1.49-6s-.5-4.28-1.49-6.01ZM112.68,270.94c-1.18,1.15-2.83,1.73-4.95,1.73h-2.65v-13.38h2.65c2.12,0,3.77.6,4.95,1.77,1.18,1.18,1.77,2.83,1.77,4.95s-.59,3.76-1.77,4.92Z"/>
        <path class="cls-7" d="M143.96,259.01v-4.49h-14.1v23h14.1v-4.49h-8.49v-5.05h7.51v-4.33h-7.51v-4.65h8.49Z"/>
        <path class="cls-7" d="M165.1,265.79l8.91-11.27h-6.59l-7.67,10.09v-10.09h-5.61v23h5.61v-10.16l7.73,10.16h6.85l-9.24-11.73Z"/>
        <path class="cls-7" d="M214.75,254.52v14.26l-9.37-14.26h-5.61v23h5.61v-14.19l9.37,14.19h5.61v-23h-5.61Z"/>
        <path class="cls-7" d="M240.65,264.54v4.13h7.11c-.44,1.31-1.13,2.32-2.08,3.01-.95.7-2.11,1.05-3.49,1.05-2.01,0-3.59-.6-4.73-1.79-1.15-1.19-1.73-2.85-1.73-4.97,0-2,.55-3.58,1.64-4.77,1.09-1.19,2.55-1.79,4.36-1.79,1.05,0,1.96.2,2.74.6.77.41,1.37.99,1.79,1.76h6.19c-.61-2.36-1.86-4.21-3.75-5.54-1.89-1.33-4.21-2-6.97-2-2.27,0-4.3.5-6.06,1.5-1.77.99-3.16,2.38-4.15,4.16-1,1.78-1.5,3.8-1.5,6.08s.5,4.29,1.5,6.06c.99,1.77,2.37,3.16,4.16,4.15,1.78,1,3.8,1.49,6.08,1.49,1.92,0,3.65-.36,5.17-1.11,1.53-.74,2.79-1.72,3.79-2.92.99-1.2,1.7-2.5,2.11-3.9v-5.21h-12.19Z"/>
        <g>
          <path class="cls-7" d="M183.55,257.39v20.13h5.61v-20.13h-5.61Z"/>
          <g>
            <path class="cls-1" d="M198.78,257.62c-3.71-1.96-7.93-3.07-12.42-3.07s-8.72,1.11-12.43,3.08c1.87-1.2,3.32-3.01,4.08-5.14.38-1.06.59-2.21.59-3.41v-.02c.3.36.63.69.98,1,.97.87,2.42.87,3.39,0,2.08-1.86,3.39-4.56,3.39-7.57,0,3.03,1.33,5.76,3.44,7.62.93.82,2.35.82,3.28,0,.38-.33.73-.69,1.05-1.08,0,.02,0,.03,0,.05,0,1.2.21,2.35.59,3.41.76,2.13,2.2,3.93,4.07,5.13Z"/>
            <circle class="cls-4" cx="186.35" cy="243.72" r="1.23"/>
            <circle class="cls-3" cx="194.13" cy="249.06" r="1.23"/>
            <circle class="cls-5" cx="178.61" cy="249.06" r="1.23"/>
          </g>
        </g>
      </g>
    </g>
  </g>
</svg>