<?xml version="1.0" encoding="UTF-8"?>
<svg id="Layer_2" xmlns="http://www.w3.org/2000/svg" xmlns:xlink="http://www.w3.org/1999/xlink" viewBox="0 0 200 180.45">
  <defs>
    <style>
      .cls-1 {
        fill: #e52e9b;
      }

      .cls-2 {
        fill: #17c8e5;
      }

      .cls-3 {
        fill: url(#linear-gradient);
      }
    </style>
    <linearGradient id="linear-gradient" x1="79.87" y1="125.86" x2="125.39" y2="91.26" gradientUnits="userSpaceOnUse">
      <stop offset="0" stop-color="#17c8e5"/>
      <stop offset="1" stop-color="#e52e9b"/>
    </linearGradient>
  </defs>
  <g id="Layer_1-2" data-name="Layer_1">
    <g>
      <g>
        <g>
          <path class="cls-2" d="M49.25,61.2c-2.31,3.23-6.82,4.05-9.48,4.75-.14.03-.29.06-.42.06-2.39.13-3.59-4.18-2.71-5.38.27-.37,1.06-.5,2.02-.57h.01s.01-.01.01-.01c2.45-.18,5.92.06,4.49-1.86-3-3.96-5.72-7.87-6.65-12.96-.42-2.37-1.29-5.56-.02-9.38,0,0,.26,10.07,5.92,15.86,5.67,5.79,9.15,6.25,6.82,9.49Z"/>
          <path class="cls-2" d="M18.48,63.86c-.28.59-2.4,4.63-2.4,4.63-.32.03-.64.06-.97.06-6.78.29-13.38-3.39-14.65-10.69-1.32-7.64.61-11.12.61-11.12,0,.08.01,3.46,2.04,11.74,1.71,6.99,14.46,5.5,15.31,5.4.03-.01.04-.01.04-.01Z"/>
          <path class="cls-2" d="M49.42,121.65l24.18-24.18c.81-.81.76-2.11-.07-2.89-1.41-1.32-2.7-2.8-3.89-4.31-3.66-4.67-7.49-9.18-11.22-13.81-2.17-2.68-4.44-5.4-7.27-7.41-1.73-1.22-3.74-1.81-5.82-2.13-1.87-.28-4.32.04-5.99-.92-2.39.13-3.59-4.18-2.71-5.38.27-.37,1.06-.5,2.03-.57h.01c-.13-.06-.64-.5-.73-.55-1.12-.71-2.28-1.13-3.62-1.1-1.46.03-2.86.46-4.28.64-3.82.49-8.4,1.56-11.29,4.43-.08.08-.19.21-.32.4.03-.01.04-.01.04-.01-.28.59-2.4,4.64-2.4,4.64-.32.03-.65.06-.97.06h-.01c-.46.58-.89,1.03-1.24,1.26-1.37.91-4.4,2.35-5.3,2.83-1.67.9-1.03,4.06-1.03,5.58,0,.61.01,1.22.11,1.81.41-.4.93-.84,1.6-1.36,2.33-1.81,8.96,2.1,9.24,2.26,1.3.73.28,1.72-1.08,1.18-1.36-.54-5.25-1.62-6.84-1.68-.64-.02-1.48.51-2.24,1.09h-.01c-.09-.08-.17-.16-.23-.25.31.5.76.81,1.29,1.23.69.56,1.13,1.36,1.89,1.86.57.38,1.22.63,1.88.75.42.07.86.09,1.3.09.36,0,1.33-.27,1.61-.14,0,0,5.25,2.18,8.57,7.18,3.31,5.01,6.03,8.33,5.55,12.49-.47,4.17-2.66,10.91,1.09,17.19,0,0,.36,1.27.66,4.4.31,3.13,2.11,9.17,6.15,13.81,4.05,4.65,1.21,4.28,3.5,8.92,1.51,3.07-.3,8.02-.6,9.66-.3,1.62.12,1.81-.44,2.77-.53.97-2.47,4.17-1.92,5.31,0,0,8.5.48,9.94,0,0,0-.06-4.28-.6-4.94-.55-.67,2.18-.67,1.21-3.01-.97-2.35-2.41-9.89-2.06-13.52.37-3.62,0-6.51,0-6.51,0,0,1.69.11,4.05-1.93,2.36-2.06,7.18-.07,7.43.36.23.42-1.16,3.56,1.8,11.27,0,0,.54,4.77-1.03,8.33-1.57,3.57-1.86,3.57-1.86,4.64s-2.59,1.33-1.99,5.52l9.32.09s2.57-2.99,1.63-4.93c-.08-.56.38-.68.76-1.13h.01c.09-.09.17-.21.23-.33.02-.03.04-.07.06-.11.41-.78.56-1.91-.06-3.76-.63-1.93-2.32-6.94-1.72-9.11.61-2.18,2.78-5.91,2.66-7.48-.12-1.57,4.59-1.24,7-1.64l4.12-.42c2.14-.22,4.07-1.36,5.3-3.11l9.4-13.45h-44.81ZM12.79,76.41c-2.53-.09-2.53-1.53-1.81-2.8.72-1.27,4.89-.9,4.89-.9,0,1.9-.55,3.8-3.08,3.7Z"/>
          <path class="cls-2" d="M10.98,73.6c.72-1.27,4.89-.9,4.89-.9,0,1.9-.54,3.8-3.08,3.7-2.53-.09-2.53-1.53-1.81-2.8Z"/>
          <path class="cls-2" d="M16.08,68.49c-.32.03-.64.06-.97.06.67-.82,1.4-1.87,2.03-2.81.51-.74.97-1.42,1.28-1.86.01,0,.01-.01.01-.01.03-.01.04-.01.04-.01-.28.59-2.4,4.63-2.4,4.63Z"/>
          <path class="cls-2" d="M17.4,82.11c-1.36-.53-5.25-1.62-6.83-1.68-.63-.02-1.48.51-2.24,1.09h-.01c-.09-.08-.17-.16-.23-.24t-.01-.02c-.11-.16-.19-.36-.27-.57-.06-.19-.1-.37-.14-.56,0-.03,0-.07-.01-.1.41-.4.93-.84,1.6-1.36,2.33-1.81,8.96,2.1,9.24,2.26,1.3.73.28,1.72-1.08,1.18Z"/>
          <path class="cls-2" d="M39.35,66c-2.39.13-3.59-4.18-2.71-5.38.27-.37,1.06-.5,2.02-.57l-.36.08c-1.33.28-2.14,1.67-1.68,2.95.49,1.33,1.79,2.39,2.72,2.92Z"/>
          <path class="cls-2" d="M15.87,72.7c0,1.9-.54,3.8-3.08,3.7-2.53-.09-2.53-1.53-1.81-2.8.72-1.27,4.89-.9,4.89-.9Z"/>
          <path class="cls-2" d="M17.4,82.11c-1.36-.53-5.25-1.62-6.83-1.68-.63-.02-1.48.51-2.24,1.09h-.01c-.09-.08-.17-.16-.23-.24t-.01-.02c-.27-.32-.44-.69-.54-1.09h0s.08-.09.12-.13c.41-.4.93-.84,1.6-1.36,2.33-1.81,8.96,2.1,9.24,2.26,1.3.73.28,1.72-1.08,1.18Z"/>
        </g>
        <path class="cls-1" d="M199.56,112.25c-.6.67-1.24,1.6-1.58,2.74-.74,2.51-4.42,1.33-5.74,1.47-1.32.15-3.24,1.91-4.56,2.95-1.33,1.03-2.8-.15-6.19-.89-3.38-.73-4.27.3-6.33.89-2.06.59-2.8.74-2.95,2.65-.15,1.91,1.18,5.74.45,11.92-.74,6.18.73,20.17,2.35,25.03,1.62,4.85,6.19,3.97,12.96,6.62.57.22,1.34.42,1.74.93.61.82-.88,1.27-1.41,1.41-.09.02-.17.04-.26.06-.08.02-.15.03-.22.05-1.07.26-2.15.42-3.24.55-.54.06-1.07.12-1.61.17-.03,0-.06,0-.08,0-1.31.12-2.28.16-2.28.16l-1.47-.05h-.04c-.92-.03-1.84-.06-2.76-.09-1.64-.06-3.28-.11-4.93-.17-.75-.03-1.5,0-2.24,0-.68,0-1.36,0-2.02-.16-.64-.16-1.23-.54-1.75-.93-1.27-.95-2.31-2.19-3.25-3.46-1.18-1.6-2.22-3.29-3.2-5.02-1.08-1.89-2.08-3.82-3.04-5.76-.94-1.9-1.84-3.81-2.75-5.72-.37-.79-.75-1.58-1.12-2.37-4.21-8.83-2.21-14.82-2.21-14.82-1.14,1.23-2.4,2.37-3.69,3.44-1.14.95-2.32,1.86-3.52,2.73-.57.35-1.1.79-1.65,1.17-1.01.7-2,1.42-3.09,1.99-1.2.63-2.45,1.14-3.71,1.63-1.18.46-2.37.88-3.54,1.34-.84.33-1.73.67-2.47,1.21-.14.11-.28.22-.39.36-1.33,1.62-4.71,10.9-4.71,15.02s2.8,2.8,5.74,2.95c2.95.15,1.18,3.24-1.18,3.68-2.35.45-10.6-.44-14.43-.74-.82-.06-1.5-.29-2.08-.67-2.09-1.37-2.77-4.75-3.81-9.49-.87-3.96-.85-7.16-1.45-8.73-.35-.94-.06-2,.7-2.68l.86-.76,11.6-10.4,3.84-3.44,33.58-30.09-48.4-.88c-.77-.01-1.27-.81-.94-1.51l1.26-2.64c.62-1.29,1.75-2.28,3.13-2.68,3.77-1.08,7.06-1.43,9.22-1.25,7.06.59,9.71,1.18,21.49-5.74,11.78-6.92,15.61-3.1,20.61-1.47,5.01,1.62,18.11,5.45,19.28,3.83,1.18-1.62,2.5-1.18,3.83,0,1.32,1.18-.44,4.27,3.68,6.73,4.12,2.46,3.68,5.78,4.56,9.61.59,2.57,3.43,5.33,5.24,6.87.74.63.81,1.73.17,2.46Z"/>
        <polygon class="cls-3" points="59.08 180.45 102.31 117.39 59.69 117.39 122.14 54.94 99.72 102.16 145.53 102.99 59.08 180.45"/>
      </g>
      <g>
        <g>
          <g>
            <rect class="cls-2" x="63.75" y="16.2" width="12.46" height="49.83"/>
            <rect class="cls-2" x="68.43" y="3.72" width="3.11" height="74.86"/>
          </g>
          <g>
            <rect class="cls-2" x="95.02" y="24.89" width="12.46" height="24.95"/>
            <rect class="cls-2" x="99.69" y="12.42" width="3.11" height="49.95"/>
          </g>
          <g>
            <rect class="cls-2" x="79.39" y="12.48" width="12.46" height="49.83"/>
            <rect class="cls-2" x="84.06" y="0" width="3.11" height="74.86"/>
          </g>
        </g>
        <g>
          <g>
            <rect class="cls-1" x="158.33" y="16.2" width="12.46" height="49.83"/>
            <rect class="cls-1" x="163" y="3.72" width="3.11" height="74.86"/>
          </g>
          <g>
            <rect class="cls-1" x="127.06" y="24.89" width="12.46" height="24.95"/>
            <rect class="cls-1" x="131.73" y="12.42" width="3.11" height="49.95"/>
          </g>
          <g>
            <rect class="cls-1" x="142.7" y="12.48" width="12.46" height="49.83"/>
            <rect class="cls-1" x="147.37" y="0" width="3.11" height="74.86"/>
          </g>
        </g>
      </g>
    </g>
  </g>
</svg>