<?xml version="1.0" encoding="UTF-8"?>
<svg id="Layer_2" xmlns="http://www.w3.org/2000/svg" viewBox="0 0 437.64 89.37">
  <defs>
    <style>
      .cls-1 {
        fill: #fff;
      }
    </style>
  </defs>
  <g id="Layer_1-2" data-name="Layer_1">
    <g>
      <g>
        <g>
          <g>
            <path class="cls-1" d="M24.39,30.31c-1.14,1.6-3.38,2-4.7,2.35-.07.02-.14.03-.21.03-1.18.07-1.78-2.07-1.34-2.66.13-.18.52-.25,1-.28h0s0,0,0,0c1.21-.09,2.93.03,2.22-.92-1.49-1.96-2.83-3.9-3.29-6.42-.21-1.17-.64-2.75-.01-4.65,0,0,.13,4.99,2.93,7.85,2.81,2.87,4.53,3.09,3.38,4.7Z"/>
            <path class="cls-1" d="M9.15,31.63c-.14.29-1.19,2.3-1.19,2.3-.16.02-.32.03-.48.03-3.36.14-6.63-1.68-7.25-5.3-.65-3.78.3-5.51.3-5.51,0,.04,0,1.71,1.01,5.81.85,3.46,7.16,2.72,7.58,2.68.02,0,.02,0,.02,0Z"/>
            <path class="cls-1" d="M24.48,60.25l11.98-11.98c.4-.4.38-1.04-.03-1.43-.7-.65-1.34-1.38-1.93-2.13-1.81-2.31-3.71-4.55-5.55-6.84-1.07-1.33-2.2-2.68-3.6-3.67-.86-.61-1.85-.9-2.88-1.05-.93-.14-2.14.02-2.97-.46-1.18.07-1.78-2.07-1.34-2.66.13-.18.53-.25,1-.28h0c-.07-.03-.32-.25-.36-.27-.56-.35-1.13-.56-1.79-.54-.72.02-1.41.23-2.12.32-1.89.24-4.16.77-5.59,2.19-.04.04-.09.11-.16.2.02,0,.02,0,.02,0-.14.29-1.19,2.3-1.19,2.3-.16.02-.32.03-.48.03h0c-.23.29-.44.51-.61.62-.68.45-2.18,1.17-2.63,1.4-.83.44-.51,2.01-.51,2.76,0,.3,0,.61.06.9.2-.2.46-.42.79-.67,1.16-.9,4.44,1.04,4.57,1.12.64.36.14.85-.53.58-.67-.27-2.6-.8-3.39-.83-.32-.01-.73.25-1.11.54h0s-.08-.08-.12-.12c.15.25.38.4.64.61.34.28.56.67.93.92.28.19.6.31.93.37.21.04.43.05.64.05.18,0,.66-.14.8-.07,0,0,2.6,1.08,4.24,3.55,1.64,2.48,2.98,4.12,2.75,6.19-.23,2.06-1.32,5.41.54,8.51,0,0,.18.63.33,2.18.15,1.55,1.04,4.54,3.05,6.84,2,2.3.6,2.12,1.74,4.42.75,1.52-.15,3.97-.3,4.78-.15.8.06.9-.22,1.37-.26.48-1.22,2.06-.95,2.63,0,0,4.21.24,4.92,0,0,0-.03-2.12-.3-2.45-.27-.33,1.08-.33.6-1.49-.48-1.17-1.19-4.9-1.02-6.69.18-1.79,0-3.23,0-3.23,0,0,.84.06,2-.96,1.17-1.02,3.56-.03,3.68.18.12.21-.57,1.76.89,5.58,0,0,.27,2.36-.51,4.12-.78,1.77-.92,1.77-.92,2.3s-1.29.66-.99,2.74l4.62.04s1.27-1.48.81-2.44c-.04-.28.19-.34.38-.56h0s.08-.1.12-.16c.01-.02.02-.03.03-.06.2-.39.28-.95-.03-1.86-.31-.95-1.15-3.44-.85-4.51.3-1.08,1.38-2.93,1.32-3.7-.06-.78,2.27-.62,3.47-.81l2.04-.21c1.06-.11,2.01-.67,2.63-1.54l4.66-6.66h-22.19ZM6.33,37.84c-1.25-.04-1.25-.76-.9-1.39.36-.63,2.42-.44,2.42-.44,0,.94-.27,1.88-1.53,1.83Z"/>
            <path class="cls-1" d="M5.44,36.45c.36-.63,2.42-.45,2.42-.45,0,.94-.27,1.88-1.52,1.83-1.25-.04-1.25-.76-.9-1.39Z"/>
            <path class="cls-1" d="M7.96,33.92c-.16.02-.32.03-.48.03.33-.41.69-.92,1.01-1.39.25-.37.48-.7.63-.92,0,0,0,0,0,0,.02,0,.02,0,.02,0-.14.29-1.19,2.3-1.19,2.3Z"/>
            <path class="cls-1" d="M8.62,40.66c-.67-.26-2.6-.8-3.39-.83-.31-.01-.73.25-1.11.54h0s-.08-.08-.12-.12t0-.01c-.06-.08-.09-.18-.13-.28-.03-.09-.05-.18-.07-.28,0-.02,0-.03,0-.05.2-.2.46-.42.79-.67,1.16-.9,4.44,1.04,4.57,1.12.64.36.14.85-.53.58Z"/>
            <path class="cls-1" d="M19.49,32.69c-1.18.07-1.78-2.07-1.34-2.66.13-.18.52-.25,1-.28l-.18.04c-.66.14-1.06.83-.83,1.46.24.66.89,1.18,1.35,1.45Z"/>
            <path class="cls-1" d="M7.86,36.01c0,.94-.27,1.88-1.52,1.83-1.25-.04-1.25-.76-.9-1.39.36-.63,2.42-.45,2.42-.45Z"/>
            <path class="cls-1" d="M8.62,40.66c-.67-.26-2.6-.8-3.39-.83-.31-.01-.73.25-1.11.54h0s-.08-.08-.12-.12t0-.01c-.13-.16-.22-.34-.27-.54h0s.04-.04.06-.07c.2-.2.46-.42.79-.67,1.16-.9,4.44,1.04,4.57,1.12.64.36.14.85-.53.58Z"/>
          </g>
          <path class="cls-1" d="M98.83,55.59c-.3.33-.62.79-.78,1.36-.36,1.24-2.19.66-2.84.73-.66.07-1.6.95-2.26,1.46-.66.51-1.39-.07-3.06-.44-1.67-.36-2.11.15-3.13.44-1.02.29-1.38.36-1.46,1.31-.07.95.58,2.84.22,5.91-.36,3.06.36,9.99,1.16,12.39.8,2.4,3.06,1.97,6.42,3.28.28.11.67.21.86.46.3.41-.44.63-.7.7-.04.01-.09.02-.13.03-.04,0-.07.02-.11.02-.53.13-1.07.21-1.61.27-.27.03-.53.06-.8.08-.01,0-.03,0-.04,0-.65.06-1.13.08-1.13.08l-.73-.02h-.02c-.46-.02-.91-.03-1.37-.05-.81-.03-1.62-.06-2.44-.09-.37-.01-.74,0-1.11,0-.33,0-.67,0-1-.08-.32-.08-.61-.27-.87-.46-.63-.47-1.14-1.09-1.61-1.71-.59-.79-1.1-1.63-1.59-2.48-.53-.93-1.03-1.89-1.51-2.85-.46-.94-.91-1.88-1.36-2.83-.19-.39-.37-.78-.56-1.17-2.08-4.37-1.09-7.34-1.09-7.34-.57.61-1.19,1.17-1.83,1.71-.57.47-1.15.92-1.74,1.35-.28.17-.54.39-.82.58-.5.35-.99.7-1.53.98-.59.31-1.21.56-1.84.81-.58.23-1.17.43-1.75.67-.41.17-.86.33-1.22.6-.07.05-.14.11-.19.18-.66.8-2.33,5.4-2.33,7.44s1.38,1.38,2.84,1.46c1.46.07.58,1.6-.58,1.82-1.17.22-5.25-.22-7.15-.36-.41-.03-.74-.14-1.03-.33-1.04-.68-1.37-2.35-1.89-4.7-.43-1.96-.42-3.55-.72-4.32-.17-.47-.03-.99.35-1.33l.43-.38,5.75-5.15,1.9-1.71,16.63-14.9-23.97-.44c-.38,0-.63-.4-.46-.75l.62-1.31c.31-.64.87-1.13,1.55-1.33,1.87-.53,3.5-.71,4.57-.62,3.5.29,4.81.58,10.64-2.84,5.83-3.43,7.73-1.53,10.21-.73,2.48.8,8.97,2.7,9.55,1.9.58-.8,1.24-.58,1.9,0,.65.58-.22,2.11,1.82,3.33,2.04,1.22,1.82,2.86,2.26,4.76.29,1.27,1.7,2.64,2.6,3.4.37.31.4.86.08,1.22Z"/>
          <polygon class="cls-1" points="29.26 89.37 50.67 58.14 29.56 58.14 60.49 27.21 49.39 50.6 72.07 51.01 29.26 89.37"/>
        </g>
        <g>
          <g>
            <g>
              <rect class="cls-1" x="31.57" y="8.02" width="6.17" height="24.68"/>
              <rect class="cls-1" x="33.89" y="1.84" width="1.54" height="37.08"/>
            </g>
            <g>
              <rect class="cls-1" x="47.06" y="12.33" width="6.17" height="12.36"/>
              <rect class="cls-1" x="49.37" y="6.15" width="1.54" height="24.74"/>
            </g>
            <g>
              <rect class="cls-1" x="39.32" y="6.18" width="6.17" height="24.68"/>
              <rect class="cls-1" x="41.63" y="0" width="1.54" height="37.08"/>
            </g>
          </g>
          <g>
            <g>
              <rect class="cls-1" x="78.41" y="8.02" width="6.17" height="24.68"/>
              <rect class="cls-1" x="80.73" y="1.84" width="1.54" height="37.08"/>
            </g>
            <g>
              <rect class="cls-1" x="62.93" y="12.33" width="6.17" height="12.36"/>
              <rect class="cls-1" x="65.24" y="6.15" width="1.54" height="24.74"/>
            </g>
            <g>
              <rect class="cls-1" x="70.67" y="6.18" width="6.17" height="24.68"/>
              <rect class="cls-1" x="72.99" y="0" width="1.54" height="37.08"/>
            </g>
          </g>
        </g>
      </g>
      <g>
        <path class="cls-1" d="M120.22,41.56v5.96h8.09v24.57h7.43v-24.57h8.09v-5.96h-23.61Z"/>
        <path class="cls-1" d="M173.2,60.01c2.23-.67,3.92-1.81,5.06-3.4,1.15-1.59,1.73-3.41,1.73-5.43,0-1.8-.42-3.44-1.26-4.9-.84-1.46-2.11-2.62-3.81-3.46-1.69-.84-3.74-1.25-6.15-1.25h-12.48v30.53h7.44v-11.52h1.78l6.35,11.52h8.4l-7.04-12.08ZM171.4,54.31c-.68.66-1.71,1-3.07,1h-4.6v-7.57h4.6c1.36,0,2.39.33,3.07,1,.68.67,1.02,1.58,1.02,2.74,0,1.23-.34,2.16-1.02,2.84Z"/>
        <path class="cls-1" d="M211,41.56h-8.62l-11.05,30.53h7.79l1.83-5.38h11.39l1.83,5.38h7.87l-11.05-30.53ZM202.91,60.96l3.74-11.17,3.78,11.17h-7.53Z"/>
        <path class="cls-1" d="M259.57,48.84c-1.32-2.3-3.18-4.1-5.59-5.37-2.41-1.27-5.22-1.91-8.44-1.91h-11.44v30.53h11.44c3.19,0,6-.63,8.42-1.91,2.42-1.27,4.29-3.07,5.61-5.39,1.31-2.32,1.98-4.98,1.98-7.96s-.66-5.68-1.98-7.98ZM251.63,63.36c-1.56,1.53-3.75,2.3-6.57,2.3h-3.52v-17.75h3.52c2.82,0,5.01.79,6.57,2.35,1.57,1.57,2.35,3.75,2.35,6.57s-.78,4.99-2.35,6.53Z"/>
        <path class="cls-1" d="M293.13,47.52v-5.96h-18.71v30.53h18.71v-5.96h-11.27v-6.7h9.97v-5.74h-9.97v-6.17h11.27Z"/>
        <path class="cls-1" d="M321.19,56.52l11.83-14.96h-8.74l-10.18,13.4v-13.4h-7.44v30.53h7.44v-13.49l10.26,13.49h9.09l-12.26-15.57Z"/>
        <path class="cls-1" d="M387.08,41.56v18.92l-12.44-18.92h-7.44v30.53h7.44v-18.83l12.44,18.83h7.45v-30.53h-7.45Z"/>
        <path class="cls-1" d="M421.45,54.87v5.48h9.43c-.58,1.74-1.5,3.07-2.76,4-1.26.93-2.81,1.39-4.63,1.39-2.67,0-4.76-.79-6.28-2.37-1.53-1.58-2.29-3.78-2.29-6.59,0-2.65.73-4.75,2.17-6.33,1.45-1.58,3.38-2.37,5.79-2.37,1.39,0,2.6.27,3.64.8,1.03.54,1.82,1.31,2.37,2.33h8.22c-.81-3.13-2.47-5.58-4.98-7.35-2.51-1.77-5.59-2.66-9.25-2.66-3.01,0-5.7.66-8.04,1.99-2.35,1.31-4.19,3.16-5.5,5.52-1.32,2.36-1.99,5.05-1.99,8.07s.66,5.69,1.99,8.04c1.31,2.35,3.15,4.19,5.52,5.5,2.36,1.32,5.05,1.98,8.07,1.98,2.55,0,4.84-.48,6.87-1.47,2.03-.99,3.7-2.28,5.03-3.87,1.31-1.59,2.25-3.32,2.81-5.18v-6.92h-16.18Z"/>
        <g>
          <path class="cls-1" d="M345.68,45.38v26.71h7.44v-26.71h-7.44Z"/>
          <g>
            <path class="cls-1" d="M365.89,45.69c-4.92-2.61-10.53-4.08-16.48-4.08s-11.57,1.48-16.49,4.08c2.48-1.6,4.41-3.99,5.41-6.82.5-1.41.78-2.94.78-4.52v-.03c.4.47.83.92,1.3,1.33,1.28,1.15,3.21,1.15,4.49,0,2.76-2.47,4.49-6.05,4.49-10.05,0,4.03,1.77,7.64,4.56,10.11,1.24,1.09,3.12,1.09,4.36,0,.5-.44.97-.92,1.4-1.43,0,.02,0,.05,0,.07,0,1.59.27,3.11.78,4.53,1.01,2.82,2.93,5.21,5.4,6.81Z"/>
            <circle class="cls-1" cx="349.4" cy="27.24" r="1.63"/>
            <circle class="cls-1" cx="359.71" cy="34.32" r="1.63"/>
            <circle class="cls-1" cx="339.12" cy="34.32" r="1.63"/>
          </g>
        </g>
      </g>
    </g>
  </g>
</svg>